<svg xmlns="http://www.w3.org/2000/svg" width="86.896" height="75.731" viewBox="0 0 86.896 75.731"><defs><style>.a{fill:none;stroke:#040405;stroke-miterlimit:10;}</style></defs><g transform="translate(9.671 -27.402) rotate(9)"><path class="a" d="M15.74,59.2v-33A109.225,109.225,0,0,1,39.02,44.4"/><path class="a" d="M60.46,45,76.21,26.12a3.671,3.671,0,0,1,1,2.82,250.171,250.171,0,0,0,3.08,28.27"/><path class="a" d="M59.58,74.68l29.23-6.44-29,5.61a239.963,239.963,0,0,1,26.16,3.34l-26.31-3C65.93,81.1,75.51,84,82.8,89.91L59.72,75.69c-.6-.36-1.25-.82-1.33-1.51"/><path class="a" d="M28.46,74.12c-7.23-1.41-13.61-6-20.9-7a145.635,145.635,0,0,0,19.5,6.67A120.332,120.332,0,0,1,6.73,75.48Q16.88,75.54,27,75A220.993,220.993,0,0,0,4.35,86"/><path class="a" d="M37.83,61.66c-1,.21-2.28.28-2.71-.63a1.55,1.55,0,0,1,.77-1.88,4.624,4.624,0,0,1,2.16-.43,1.911,1.911,0,0,1-.32,1.88c-.47.46-1.48.29-1.57-.37a.83.83,0,0,1,.8-.857.912.912,0,0,1,.138.007,1,1,0,0,1,.79,1.07,1.21,1.21,0,0,1-2,.61,1.241,1.241,0,0,1,1-1.89,1.28,1.28,0,0,1,.74,2.06,1.23,1.23,0,1,1-.36-2v1.08"/><path class="a" d="M52.29,62.27a1.52,1.52,0,0,1-1.559-1.48,1.476,1.476,0,0,1,.009-.21,2.071,2.071,0,0,1,1.8-1.68,3.372,3.372,0,0,1,2.46.75,2.509,2.509,0,0,1-3.44,1.73.774.774,0,0,1-.34-.28.667.667,0,0,1,0-.6.305.305,0,1,0,.15-.12,1.211,1.211,0,0,1,2,.49,1.12,1.12,0,0,1-1.77,1"/></g></svg>