<svg xmlns="http://www.w3.org/2000/svg" width="57.419" height="72.2" viewBox="0 0 57.419 72.2"><defs><style>.a{fill:none;stroke:#2d3532;stroke-miterlimit:10;}</style></defs><path class="a" d="M46.08,52.155A76.52,76.52,0,0,0,33.324,45.05c-3.54-1.555-8.307-2.76-11.245-.52-1.7,1.3-2.135,3.342-2.33,5.237-.236,2.292-.109,4.912,2,6.443,1.826,1.328,4.521,1.376,6.968,1.352l17.076-.169c-1.979-2.1-6.169-.954-8.6.8-4.867,3.515-7.666,8.856-7.422,14.154a3.164,3.164,0,0,0,1.24,2.722,4.8,4.8,0,0,0,2.457.529,19.55,19.55,0,0,0,13.473-5.2A17.511,17.511,0,0,0,52.3,58.854a9.758,9.758,0,0,0,1.417,8.224,33.1,33.1,0,0,0,6.235,6.774,5.36,5.36,0,0,0,3.1,1.663c2.61.175,3.822-2.667,3.511-4.789-.855-5.831-6.207-10.509-11.724-14.282A176.771,176.771,0,0,0,69.9,66.767c1.166.715,2.584,1.456,3.98,1.114,2.01-.492,2.295-2.685,2.188-4.4-.219-3.541-.982-7.772-4.937-9.243a12.514,12.514,0,0,0-5.014-.491,45.046,45.046,0,0,0-8.143,1.2c5.18-2.214,12.217-2.175,15.532-6.1,2.273-2.695,1.847-6.277,1.327-9.52-.194-1.216-.566-2.635-1.942-3.13a4.939,4.939,0,0,0-3.484.47c-6.26,2.691-11.13,7.46-13.245,12.969,2.443-2.3,4.863-4.68,6.34-7.473s1.915-6.09.354-8.853a4.692,4.692,0,0,0-2.273-2.133,5.423,5.423,0,0,0-5.151.956,8.564,8.564,0,0,0-2.527,4.056A25.7,25.7,0,0,0,51.68,47.8a24.212,24.212,0,0,0-6.832-11.224A8.65,8.65,0,0,0,40.956,34.2c-1.58-.374-3.557.069-4.242,1.289a3.271,3.271,0,0,0-.19,2.186c1.112,6.6,6.2,12.233,11.116,17.55,1.619,1.751,4.228,3.709,6.6,2.678,2.124-.923,1.985-3.4,1.545-5.333a4.121,4.121,0,0,0-.877-2.023c-1.046-1.116-3.21-1.2-4.679-.47a5.751,5.751,0,0,0-2.786,3.432c-.664,1.966.147,4.785,2.646,4.828a2.513,2.513,0,0,1,1.353.169,1.052,1.052,0,0,1,.347.935,71.279,71.279,0,0,1-5.908,28.778l.488-1.341c-.786,3.365-3.491,6.391-6.862,8.846A74.43,74.43,0,0,1,28.1,102.054" transform="translate(-19.172 -30.304)"/></svg>