<svg xmlns="http://www.w3.org/2000/svg" width="61.59" height="63.252" viewBox="0 0 61.59 63.252"><defs><style>.a{fill:none;stroke:#2d3532;stroke-miterlimit:10;}</style></defs><path class="a" d="M40.518,87.4a65.6,65.6,0,0,1-26.7-38.709,9.8,9.8,0,0,1-.354-3.627,6.513,6.513,0,0,1,5.608-5.114,10.109,10.109,0,0,1,7.567,2.408,22.328,22.328,0,0,1,5.019,6.334,120.691,120.691,0,0,1,7.32,16.03c-.058-4.783-.109-9.632,1.1-14.262s3.862-9.094,8.056-11.473a9.078,9.078,0,0,1,7.758-.906c3.283,1.351,4.925,5.2,4.742,8.715s-1.811,6.773-3.444,9.9c-3.964,7.588-8.149,15.06-12.334,22.531L40.171,87.6" transform="translate(-23.726 -16.302) rotate(-18)"/></svg>