<svg xmlns="http://www.w3.org/2000/svg" width="59.439" height="61.111" viewBox="0 0 59.439 61.111"><defs><style>.a{fill:none;stroke:#2d3532;stroke-miterlimit:10;}</style></defs><path class="a" d="M38.773,84.689A62.042,62.042,0,0,1,13.8,48.084a9.361,9.361,0,0,1-.331-3.43,6.119,6.119,0,0,1,5.247-4.836,9.392,9.392,0,0,1,7.08,2.277,21.08,21.08,0,0,1,4.7,5.99,114.725,114.725,0,0,1,6.849,15.159c-.054-4.523-.1-9.109,1.032-13.487s3.613-8.6,7.537-10.85a8.415,8.415,0,0,1,7.258-.857c3.071,1.278,4.608,4.919,4.437,8.241s-1.695,6.405-3.222,9.36c-3.708,7.175-7.624,14.241-11.539,21.306l-4.391,7.924" transform="translate(18.444 -39.188) rotate(21)"/></svg>