<svg xmlns="http://www.w3.org/2000/svg" width="81.514" height="88.913" viewBox="0 0 81.514 88.913"><defs><style>.a{fill:none;stroke:#2d3532;stroke-miterlimit:10;}</style></defs><path class="a" d="M40.789,53.371a59.151,59.151,0,0,0-10.2-7.511c-2.831-1.644-6.644-2.918-8.993-.55-1.362,1.373-1.707,3.533-1.863,5.537-.189,2.423-.087,5.193,1.6,6.811,1.46,1.4,3.616,1.454,5.572,1.429l13.656-.179c-1.582-2.222-4.933-1.009-6.879.849A20.057,20.057,0,0,0,27.744,74.72a3.861,3.861,0,0,0,.991,2.878,3.084,3.084,0,0,0,1.965.559,13.812,13.812,0,0,0,10.775-5.5,21.5,21.5,0,0,0,4.286-12.2,13.124,13.124,0,0,0,1.133,8.694,33.327,33.327,0,0,0,4.986,7.161,4.114,4.114,0,0,0,2.483,1.758c2.087.185,3.057-2.82,2.808-5.063-.684-6.164-4.963-11.11-9.376-15.1A147.5,147.5,0,0,0,59.84,68.818c.932.755,2.066,1.539,3.183,1.177,1.608-.52,1.835-2.839,1.75-4.647-.175-3.743-.786-8.216-3.949-9.771a7.709,7.709,0,0,0-4.01-.519A27.948,27.948,0,0,0,50.3,56.331c4.142-2.341,9.77-2.3,12.421-6.454,1.817-2.849,1.477-6.636,1.061-10.064-.155-1.285-.453-2.786-1.553-3.309a3.116,3.116,0,0,0-2.786.5A23.34,23.34,0,0,0,48.854,50.712a31.686,31.686,0,0,0,5.071-7.9,12.494,12.494,0,0,0,.283-9.359A4.448,4.448,0,0,0,52.39,31.2a3.543,3.543,0,0,0-4.12,1.011A9.836,9.836,0,0,0,46.25,36.5a35.466,35.466,0,0,0-.982,12.273A28.011,28.011,0,0,0,39.8,36.9a6.932,6.932,0,0,0-3.113-2.515A2.776,2.776,0,0,0,33.3,35.751a4.493,4.493,0,0,0-.152,2.311c.889,6.977,4.956,12.932,8.89,18.553,1.295,1.851,3.381,3.921,5.279,2.831,1.7-.975,1.587-3.6,1.236-5.638a5.151,5.151,0,0,0-.7-2.139,2.767,2.767,0,0,0-3.742-.5A6.039,6.039,0,0,0,41.881,54.8C41.35,56.878,42,59.858,44,59.9c.374.008.8-.083,1.082.178a1.327,1.327,0,0,1,.277.988,96.616,96.616,0,0,1-4.725,30.423l.39-1.418a17.691,17.691,0,0,1-5.488,9.352,57.48,57.48,0,0,1-9.122,6.7" transform="matrix(0.819, -0.574, 0.574, 0.819, -33.079, 12.634)"/></svg>